<?xml version="1.0" standalone="no"?>
<!DOCTYPE svg PUBLIC "-//W3C//DTD SVG 20010904//EN"
 "http://www.w3.org/TR/2001/REC-SVG-20010904/DTD/svg10.dtd">
<svg version="1.0" xmlns="http://www.w3.org/2000/svg"
 width="2400.000000pt" height="2400.000000pt" viewBox="0 0 2400.000000 2400.000000"
 preserveAspectRatio="xMidYMid meet">
<metadata>
Created by potrace 1.14, written by Peter Selinger 2001-2017
</metadata>
<g transform="translate(0.000000,2400.000000) scale(0.100000,-0.100000)"
fill="#000000" stroke="none">
<path d="M0 12000 l0 -12000 12000 0 12000 0 0 12000 0 12000 -12000 0 -12000
0 0 -12000z m12115 5990 c39 -6 93 -18 120 -26 52 -17 5326 -2403 5430 -2457
85 -44 211 -173 253 -259 47 -95 60 -173 73 -423 16 -316 1 -706 -42 -1110
-183 -1730 -858 -3372 -1945 -4731 -842 -1054 -1921 -1946 -3244 -2683 -243
-136 -496 -259 -570 -278 -97 -25 -255 -22 -354 6 -212 59 -1070 536 -1591
884 -852 570 -1625 1263 -2230 2002 -1143 1395 -1833 3097 -1984 4900 -40 468
-32 1108 15 1314 31 134 132 276 254 353 58 37 5405 2447 5500 2479 102 35
205 44 315 29z m-2078 -12706 l33 -25 0 -579 0 -579 60 -7 60 -7 0 -83 0 -84
-260 0 -260 0 0 84 0 84 55 7 55 6 0 499 0 498 -30 6 c-16 3 -43 9 -60 12
l-30 6 0 73 0 73 103 12 c56 7 127 16 157 20 30 4 61 8 69 9 8 0 29 -10 48
-25z m1024 -1 l39 -28 0 -582 0 -583 40 0 41 0 -3 -77 -3 -78 -65 -12 c-85
-16 -199 -16 -229 0 -20 10 -30 22 -48 55 -1 2 -32 -11 -70 -30 -63 -31 -74
-33 -168 -33 -87 0 -107 3 -157 27 -142 67 -221 219 -221 433 0 161 39 274
130 376 91 100 208 150 360 152 l93 2 0 96 0 97 -32 5 c-18 3 -52 9 -75 12
l-43 7 0 74 c0 41 1 74 3 75 2 0 332 36 355 38 8 0 31 -11 53 -26z m1727 -20
c116 -86 69 -277 -73 -299 -69 -10 -114 3 -156 45 -79 79 -50 218 56 267 43
20 138 13 173 -13z m-4510 -74 c53 -6 135 -18 182 -28 l85 -17 -2 -110 c-1
-60 -5 -142 -9 -182 l-6 -73 -111 3 -111 3 -21 100 c-11 55 -24 105 -28 111
-12 20 -106 37 -168 30 -105 -11 -178 -66 -224 -170 -35 -78 -47 -158 -47
-295 1 -266 75 -437 204 -472 53 -14 150 -7 201 14 l38 16 -3 148 -3 148 -30
3 c-16 1 -54 5 -82 8 l-53 5 0 90 0 89 280 0 280 0 0 -89 0 -89 -45 -6 -45 -7
0 -215 c0 -205 -1 -214 -19 -214 -11 0 -84 -16 -163 -36 -338 -85 -564 -49
-729 117 -120 120 -173 263 -173 474 0 149 15 220 69 331 120 245 373 353 733
313z m3719 -20 c96 -24 166 -61 229 -121 70 -66 110 -130 142 -226 23 -68 26
-94 26 -222 1 -122 -3 -157 -22 -225 -53 -182 -169 -329 -313 -398 -134 -63
-148 -64 -606 -59 l-233 2 0 84 0 84 65 7 65 7 0 448 0 448 -42 7 c-82 12 -78
8 -78 96 l0 79 138 1 c75 1 189 5 252 9 151 9 288 2 377 -21z m-2682 -285
c185 -62 295 -239 295 -474 0 -249 -138 -438 -359 -490 -33 -8 -89 -11 -150
-8 -126 7 -193 33 -270 103 -101 94 -151 220 -151 385 0 267 137 445 385 500
56 13 191 4 250 -16z m3497 0 l38 -27 0 -377 0 -377 31 -7 c17 -3 42 -6 55 -6
23 0 24 -2 24 -85 l0 -85 -260 0 -260 0 0 84 0 84 55 7 55 6 0 285 c0 219 -3
286 -12 289 -7 2 -32 9 -55 15 l-43 11 0 83 0 83 163 20 c89 11 164 21 166 22
3 0 22 -11 43 -25z m833 -9 l74 -24 47 26 c38 21 65 28 131 31 l83 5 0 -122 0
-121 -69 0 -69 0 -4 -92 c-5 -109 -31 -172 -97 -231 -85 -77 -178 -107 -333
-107 l-108 0 0 -39 c0 -27 5 -41 18 -46 9 -5 109 -11 222 -15 175 -6 213 -10
260 -28 105 -41 163 -127 163 -242 0 -188 -179 -335 -453 -372 -109 -14 -257
0 -346 33 -103 39 -184 146 -184 244 0 54 32 127 76 173 44 46 45 48 30 73
-20 34 -30 99 -22 143 4 19 23 59 42 87 l35 52 -40 41 c-101 104 -118 271 -39
391 101 152 361 215 583 140z m899 25 c38 -6 89 -19 115 -31 l46 -20 55 28
c44 22 72 29 138 32 l82 3 0 -121 0 -121 -72 0 -73 0 0 -83 c0 -73 -4 -90 -33
-150 -39 -79 -100 -133 -189 -168 -45 -17 -86 -23 -183 -27 -128 -5 -140 -8
-140 -48 0 -43 20 -48 243 -54 204 -6 214 -7 272 -34 104 -48 145 -105 152
-216 12 -169 -116 -307 -342 -371 -64 -18 -106 -23 -205 -23 -135 0 -207 13
-281 50 -89 45 -137 110 -146 200 -8 78 12 137 67 197 l47 51 -20 39 c-38 74
-22 172 40 238 l25 27 -45 44 c-64 65 -90 139 -85 244 3 65 10 90 31 126 53
91 151 155 279 183 77 16 132 18 222 5z m1058 -20 c157 -59 230 -210 208 -428
-6 -48 -10 -88 -10 -89 0 -2 -115 -3 -255 -3 l-255 0 0 -23 c0 -38 26 -113 50
-147 29 -41 92 -69 150 -70 63 0 157 26 202 55 21 14 41 25 46 25 4 0 22 -31
39 -70 l31 -70 -45 -40 c-26 -23 -79 -53 -127 -72 -77 -31 -87 -33 -211 -32
-155 0 -214 18 -295 91 -95 85 -139 191 -147 355 -9 176 28 303 120 404 114
126 333 176 499 114z m604 3 c26 -22 34 -35 34 -60 l0 -33 48 37 c88 68 183
94 260 73 l42 -11 0 -165 0 -164 -42 27 c-36 24 -51 28 -117 28 -56 0 -87 -6
-116 -20 l-40 -20 -3 -237 -2 -236 95 -7 95 -7 0 -84 0 -84 -295 0 -295 0 0
85 0 85 33 0 c17 0 42 3 55 6 l22 6 0 284 0 283 -47 14 -48 14 -3 85 -3 86 88
12 c48 6 111 15 138 20 28 4 54 8 58 9 4 0 24 -11 43 -26z"/>
<path d="M10863 14935 c-461 -191 -947 -470 -1342 -771 -79 -60 -152 -115
-163 -123 -18 -13 -26 -8 -101 67 -45 45 -87 82 -92 82 -6 0 -60 -49 -120
-110 l-110 -110 -92 92 -93 93 -212 -213 -213 -212 93 -93 92 -92 -110 -110
c-61 -60 -110 -114 -110 -120 0 -5 37 -46 82 -92 l81 -82 -72 -93 c-188 -244
-352 -487 -496 -738 -166 -288 -423 -847 -399 -869 14 -12 516 -243 520 -238
2 2 29 50 60 108 147 270 369 614 567 878 120 159 335 421 346 421 3 0 36 -29
71 -65 35 -36 69 -65 75 -65 13 0 875 862 875 875 0 6 -29 40 -65 75 -36 35
-65 68 -65 72 0 12 245 213 425 348 271 203 578 402 865 560 63 34 116 64 118
65 7 6 -242 525 -252 524 -6 0 -79 -29 -163 -64z m214 -230 c45 -98 83 -182
83 -186 0 -4 -35 -27 -77 -50 -313 -172 -667 -407 -973 -648 -156 -122 -363
-298 -369 -313 -2 -6 29 -42 68 -82 l71 -71 -378 -378 -377 -377 -70 70 c-39
39 -75 69 -81 68 -31 -8 -347 -399 -524 -648 -167 -235 -418 -636 -470 -751
l-12 -27 -182 85 c-99 47 -185 88 -189 92 -18 18 219 522 368 781 143 249 327
520 512 752 51 65 93 121 93 125 0 4 -36 44 -80 88 l-80 80 115 115 115 115
-92 92 -93 93 148 147 147 148 93 -93 92 -92 115 115 115 115 57 -57 58 -57
28 28 29 27 27 -31 26 -32 48 40 c272 226 701 501 1072 687 160 81 461 215
474 211 5 -1 47 -82 93 -181z"/>
<path d="M12896 14948 c-13 -29 -67 -147 -120 -262 -53 -114 -95 -210 -93
-212 2 -2 50 -29 108 -60 270 -147 614 -369 878 -567 159 -120 421 -335 421
-346 0 -3 -29 -36 -65 -71 -36 -35 -65 -69 -65 -75 0 -13 862 -875 875 -875 6
0 40 29 75 65 35 36 68 65 72 65 12 0 213 -245 348 -425 203 -271 402 -578
560 -865 34 -63 64 -116 65 -118 2 -3 515 235 523 243 9 8 -108 284 -204 483
-174 361 -395 723 -630 1031 -60 79 -115 152 -123 163 -13 18 -8 26 67 101 45
45 82 87 82 92 0 6 -49 60 -110 120 l-110 110 92 92 93 93 -213 212 -212 213
-93 -93 -92 -92 -110 110 c-60 61 -114 110 -120 110 -5 0 -46 -37 -92 -82
l-82 -81 -93 72 c-370 286 -700 491 -1112 691 -203 99 -460 210 -486 210 -5 0
-21 -24 -34 -52z m205 -110 c481 -203 980 -500 1401 -835 65 -51 121 -93 125
-93 4 0 44 36 88 80 l80 80 115 -115 115 -115 92 92 93 93 147 -148 148 -147
-93 -93 -92 -92 115 -115 115 -115 -57 -57 -57 -58 28 -28 27 -29 -31 -27 -32
-26 40 -48 c166 -200 395 -539 555 -822 140 -249 357 -714 340 -731 -10 -9
-354 -169 -364 -169 -4 0 -27 35 -50 78 -116 210 -299 499 -449 708 -172 239
-486 625 -514 632 -6 1 -42 -29 -81 -68 l-70 -70 -377 377 -378 378 71 71 c39
40 70 76 68 82 -13 32 -412 354 -649 522 -235 167 -636 418 -751 470 l-27 12
50 107 c28 58 67 143 88 189 21 45 41 82 44 82 2 0 60 -23 127 -52z"/>
<path d="M9970 12505 l-205 -205 900 -900 900 -900 -545 -545 -545 -545 208
-207 207 -208 545 545 545 545 545 -545 545 -545 207 208 208 207 -545 545
-545 545 900 900 900 900 -208 207 -207 208 -900 -900 -900 -900 -898 898
c-493 493 -899 897 -902 897 -3 0 -97 -92 -210 -205z m3248 -3242 l-142 -142
-1593 1586 -1594 1587 148 148 148 149 1587 -1593 1587 -1593 -141 -142z m160
2339 c-381 -381 -773 -770 -871 -864 l-178 -172 -140 140 c-76 76 -139 142
-139 147 0 5 388 397 862 873 l862 865 148 -148 148 -148 -692 -693z m-1603
-1312 l140 -140 -515 -515 -515 -515 -142 142 -143 143 512 512 c282 282 515
513 518 513 3 0 68 -63 145 -140z"/>
<path d="M10634 4711 c-79 -48 -107 -138 -102 -330 3 -122 6 -142 28 -185 42
-82 120 -107 200 -66 l40 20 0 284 c0 320 7 296 -83 296 -33 0 -63 -7 -83 -19z"/>
<path d="M11652 4559 l3 -464 95 0 c83 0 102 3 145 26 64 33 117 102 147 193
20 63 23 90 23 241 0 151 -3 178 -23 241 -30 91 -83 160 -146 193 -40 21 -67
26 -148 29 l-98 4 2 -463z"/>
<path d="M9072 4705 c-16 -14 -37 -44 -47 -67 -44 -110 -38 -370 10 -475 19
-42 32 -57 59 -68 75 -32 126 -9 164 73 22 49 26 74 30 188 7 194 -21 317 -80
358 -35 25 -101 20 -136 -9z"/>
<path d="M13369 4725 c-70 -38 -79 -226 -14 -291 35 -35 122 -35 154 0 57 61
54 239 -6 286 -30 24 -95 26 -134 5z"/>
<path d="M13290 3894 c-6 -14 -10 -52 -10 -84 0 -51 4 -64 28 -90 50 -56 178
-62 274 -14 54 27 78 65 78 122 0 77 -36 91 -233 92 l-127 0 -10 -26z"/>
<path d="M14362 4724 c-37 -26 -52 -67 -52 -144 0 -79 17 -130 51 -154 27 -18
100 -21 131 -5 31 17 48 71 48 155 0 120 -31 164 -118 164 -21 0 -48 -7 -60
-16z"/>
<path d="M14281 3883 c-24 -86 -4 -161 51 -189 52 -28 172 -24 233 7 64 31 90
68 90 124 0 79 -38 94 -237 95 l-127 0 -10 -37z"/>
<path d="M15352 4714 c-32 -22 -51 -65 -60 -134 l-9 -60 119 0 118 0 0 60 c0
69 -19 123 -48 139 -30 16 -94 13 -120 -5z"/>
</g>
</svg>
